<svg width="24" height="24" viewBox="0 0 24 24" fill="none" xmlns="http://www.w3.org/2000/svg">
<g id="icons 24px - bank - not final">
<rect id="Rectangle" width="24" height="24" fill="#D8D8D8" fill-opacity="0.01"/>
<path id="Shape" fill-rule="evenodd" clip-rule="evenodd" d="M21.2044 18.2176H21.8374C22.8659 18.2176 23.7099 19.0352 23.7626 20.0637V21.4352C23.7626 22.4637 22.9187 23.3077 21.8901 23.3077H1.87253C0.843956 23.3077 0 22.4637 0 21.4352V20.0637C0 19.0352 0.843956 18.1912 1.87253 18.1912H2.50549V10.8857H1.87253C1.0022 10.8857 0.738462 10.411 0.659341 10.2C0.58022 9.98901 0.448352 9.46154 1.10769 8.88132L10.5231 0.494506C11.2615 -0.164834 12.4484 -0.164834 13.1868 0.494506L22.6022 8.88132C23.2352 9.46154 23.1297 9.98901 23.0505 10.2C22.9714 10.411 22.7077 10.8857 21.8374 10.8857H21.2044V18.2176ZM17.4863 18.2176H19.8336V10.8857H17.4863V18.2176ZM9.2846 18.2176H7.57031V10.8857H9.2846V18.2176ZM13.0289 10.8857H10.6816V18.1912H13.0289V10.8857ZM14.4004 10.8857H16.1147V18.1912H14.4004V10.8857ZM12.2631 1.57596C12.0258 1.39135 11.6302 1.39135 11.4192 1.57596L2.47852 9.51442H7.56863H9.28291H14.3994H16.1137H21.2038L12.2631 1.57596ZM3.84961 10.8857H6.19686V18.1912H3.84961V10.8857ZM21.8634 21.9361C22.1271 21.9361 22.3381 21.7251 22.3381 21.4614H22.3645V20.09C22.3645 19.8262 22.1535 19.6152 21.8898 19.6152H21.2568H16.1403H14.426H9.30956H7.59527H2.47879H1.84582C1.58208 19.6152 1.37109 19.8262 1.37109 20.09V21.4614C1.37109 21.7251 1.58208 21.9361 1.84582 21.9361H21.8634Z" fill="#13126C"/>
</g>
</svg>
