<svg width="25" height="24" viewBox="0 0 25 24" fill="none" xmlns="http://www.w3.org/2000/svg">
<g id="icons 24px - credit card - not final">
<rect id="Rectangle" x="0.200195" width="24" height="24" fill="#D8D8D8" fill-opacity="0.01"/>
<g id="cc">
<g id="Shape">
<path fill-rule="evenodd" clip-rule="evenodd" d="M2.08961 3H22.3108C23.3511 3 24.2002 3.84908 24.2002 4.88941V17.2077C24.2002 18.2481 23.3511 19.0971 22.3108 19.0971H2.08961C1.04893 19.0971 0.200195 18.2481 0.200195 17.2077V4.88941C0.200195 3.84908 1.04893 3 2.08961 3ZM20.8491 10.4277C21.1707 10.4277 21.4309 10.6886 21.4309 11.0099V14.14C21.4309 14.4613 21.1707 14.7222 20.8491 14.7222H15.9227C15.601 14.7222 15.3408 14.4613 15.3408 14.14V11.0099C15.3408 10.6886 15.601 10.4277 15.9227 10.4277H20.8491ZM16.5049 13.558V11.5913H20.2676V13.558H16.5049ZM1.36426 6.77818H23.0365V4.88944C23.0365 4.49146 22.7088 4.16406 22.3111 4.16406H2.08997C1.69165 4.16406 1.36426 4.49146 1.36426 4.88944V6.77818ZM1.36426 17.208V8.18652H23.0365V17.208C23.0365 17.606 22.7088 17.9334 22.3111 17.9334H2.08997C1.69165 17.9334 1.36426 17.606 1.36426 17.208Z" fill="#13126C"/>
<path d="M16.5049 11.5913V11.3913H16.3049V11.5913H16.5049ZM16.5049 13.558H16.3049V13.758H16.5049V13.558ZM20.2676 11.5913H20.4676V11.3913H20.2676V11.5913ZM20.2676 13.558V13.758H20.4676V13.558H20.2676ZM23.0365 6.77818V6.97818H23.2365V6.77818H23.0365ZM1.36426 6.77818H1.16426V6.97818H1.36426V6.77818ZM1.36426 8.18652V7.98652H1.16426V8.18652H1.36426ZM23.0365 8.18652H23.2365V7.98652H23.0365V8.18652ZM22.3108 3V2.8H2.08961V3V3.2H22.3108V3ZM24.2002 4.88941H24.4002C24.4002 3.73862 23.4616 2.8 22.3108 2.8V3V3.2C23.2407 3.2 24.0002 3.95953 24.0002 4.88941H24.2002ZM24.2002 17.2077H24.4002V4.88941H24.2002H24.0002V17.2077H24.2002ZM22.3108 19.0971V19.2971C23.4616 19.2971 24.4002 18.3585 24.4002 17.2077H24.2002H24.0002C24.0002 18.1376 23.2407 18.8971 22.3108 18.8971V19.0971ZM2.08961 19.0971V19.2971H22.3108V19.0971V18.8971H2.08961V19.0971ZM0.200195 17.2077H0.00019531C0.00019531 18.3585 0.938455 19.2971 2.08961 19.2971V19.0971V18.8971C1.15941 18.8971 0.400195 18.1376 0.400195 17.2077H0.200195ZM0.200195 4.88941H0.00019531V17.2077H0.200195H0.400195V4.88941H0.200195ZM2.08961 3V2.8C0.938455 2.8 0.00019531 3.73864 0.00019531 4.88941H0.200195H0.400195C0.400195 3.95951 1.15941 3.2 2.08961 3.2V3ZM21.4309 11.0099H21.6309C21.6309 10.5783 21.2814 10.2277 20.8491 10.2277V10.4277V10.6277C21.0601 10.6277 21.2309 10.7988 21.2309 11.0099H21.4309ZM21.4309 14.14H21.6309V11.0099H21.4309H21.2309V14.14H21.4309ZM20.8491 14.7222V14.9222C21.2814 14.9222 21.6309 14.5716 21.6309 14.14H21.4309H21.2309C21.2309 14.3511 21.0601 14.5222 20.8491 14.5222V14.7222ZM15.9227 14.7222V14.9222H20.8491V14.7222V14.5222H15.9227V14.7222ZM15.3408 14.14H15.1408C15.1408 14.5716 15.4903 14.9222 15.9227 14.9222V14.7222V14.5222C15.7117 14.5222 15.5408 14.3511 15.5408 14.14H15.3408ZM15.3408 11.0099H15.1408V14.14H15.3408H15.5408V11.0099H15.3408ZM15.9227 10.4277V10.2277C15.4903 10.2277 15.1408 10.5783 15.1408 11.0099H15.3408H15.5408C15.5408 10.7988 15.7117 10.6277 15.9227 10.6277V10.4277ZM20.8491 10.4277V10.2277H15.9227V10.4277V10.6277H20.8491V10.4277ZM16.5049 11.5913H16.3049V13.558H16.5049H16.7049V11.5913H16.5049ZM20.2676 11.5913V11.3913H16.5049V11.5913V11.7913H20.2676V11.5913ZM20.2676 13.558H20.4676V11.5913H20.2676H20.0676V13.558H20.2676ZM16.5049 13.558V13.758H20.2676V13.558V13.358H16.5049V13.558ZM23.0365 6.77818V6.57818H1.36426V6.77818V6.97818H23.0365V6.77818ZM23.0365 4.88944H22.8365V6.77818H23.0365H23.2365V4.88944H23.0365ZM22.3111 4.16406V4.36406C22.5984 4.36406 22.8365 4.60198 22.8365 4.88944H23.0365H23.2365C23.2365 4.38094 22.8192 3.96406 22.3111 3.96406V4.16406ZM2.08997 4.16406V4.36406H22.3111V4.16406V3.96406H2.08997V4.16406ZM1.36426 4.88944H1.56426C1.56426 4.60197 1.80205 4.36406 2.08997 4.36406V4.16406V3.96406C1.58126 3.96406 1.16426 4.38094 1.16426 4.88944H1.36426ZM1.36426 6.77818H1.56426V4.88944H1.36426H1.16426V6.77818H1.36426ZM1.36426 8.18652H1.16426V17.208H1.36426H1.56426V8.18652H1.36426ZM23.0365 8.18652V7.98652H1.36426V8.18652V8.38652H23.0365V8.18652ZM23.0365 17.208H23.2365V8.18652H23.0365H22.8365V17.208H23.0365ZM22.3111 17.9334V18.1334C22.8192 18.1334 23.2365 17.7165 23.2365 17.208H23.0365H22.8365C22.8365 17.4955 22.5984 17.7334 22.3111 17.7334V17.9334ZM2.08997 17.9334V18.1334H22.3111V17.9334V17.7334H2.08997V17.9334ZM1.36426 17.208H1.16426C1.16426 17.7165 1.58126 18.1334 2.08997 18.1334V17.9334V17.7334C1.80205 17.7334 1.56426 17.4955 1.56426 17.208H1.36426Z" fill="#13126C"/>
</g>
</g>
</g>
</svg>
