<?xml version="1.0" encoding="UTF-8"?><svg id="a" xmlns="http://www.w3.org/2000/svg" viewBox="0 0 168.15 168.15"><rect y="53.81" width="6.73" height="13.45" style="fill:#b4d334;"/><rect y="73.98" width="6.73" height="6.73" style="fill:#b4d334;"/><polygon points="6.73 100.89 13.45 100.89 20.18 100.89 20.18 87.44 13.45 87.44 13.45 94.16 6.73 94.16 6.73 87.44 0 87.44 0 114.34 6.73 114.34 6.73 100.89" style="fill:#b4d334;"/><path d="M13.45,47.08h33.63V0H0v47.08h13.45ZM6.73,6.73h33.63v33.63H6.73V6.73Z" style="fill:#b4d334;"/><rect x="13.45" y="107.61" width="6.73" height="6.73" style="fill:#b4d334;"/><polygon points="26.9 33.63 26.9 33.63 33.63 33.63 33.63 13.45 26.9 13.45 26.9 13.45 20.18 13.45 13.45 13.45 13.45 33.63 20.18 33.63 26.9 33.63" style="fill:#b4d334;"/><polygon points="26.9 100.89 33.63 100.89 33.63 107.61 40.35 107.61 40.35 114.34 47.08 114.34 47.08 107.61 40.35 107.61 40.35 100.89 47.08 100.89 47.08 94.16 40.35 94.16 33.63 94.16 33.63 80.71 26.9 80.71 26.9 100.89" style="fill:#b4d334;"/><polygon points="26.9 134.52 20.18 134.52 13.45 134.52 13.45 154.69 20.18 154.69 26.9 154.69 26.9 154.69 33.63 154.69 33.63 134.52 26.9 134.52 26.9 134.52" style="fill:#b4d334;"/><path d="M33.63,121.06H0v47.08h47.08v-47.08h-13.45ZM40.35,154.69v6.73H6.73v-33.63h33.63v26.9Z" style="fill:#b4d334;"/><rect x="53.81" width="6.73" height="20.18" style="fill:#b4d334;"/><rect x="53.81" y="40.35" width="6.73" height="6.73" style="fill:#b4d334;"/><rect x="53.81" y="94.16" width="6.73" height="6.73" style="fill:#b4d334;"/><rect x="67.26" y="6.73" width="6.73" height="6.73" style="fill:#b4d334;"/><rect x="73.98" y="20.18" width="6.73" height="6.73" style="fill:#b4d334;"/><rect x="73.98" y="53.81" width="6.73" height="6.73" style="fill:#b4d334;"/><path d="M73.98,80.71v-6.72h0v-13.45h-6.73v-13.45h6.73v-6.73h6.73v-6.73h-20.18v-6.72h-6.73v6.73h6.73v6.72h6.72v6.73h-6.72v6.73H20.18v13.45h-6.73v6.73h0v6.73h6.73v-6.72h0s6.73,0,6.73,0h0s6.73,0,6.73,0v6.72h6.73v-6.72h6.73v-6.73h-6.73v-6.73h6.73v6.73h6.73v-6.73h13.45v6.73h-6.72v6.73h-6.73v6.73h-13.45v6.73h40.36v-6.73h-6.73ZM26.9,67.26v-6.73h6.73v6.73h-6.73ZM60.53,80.71v-6.72h6.72v6.72h-6.72Z" style="fill:#b4d334;"/><rect x="80.71" width="6.73" height="13.45" style="fill:#b4d334;"/><rect x="80.71" y="40.35" width="6.73" height="6.73" style="fill:#b4d334;"/><rect x="80.71" y="87.44" width="6.73" height="6.73" style="fill:#b4d334;"/><rect x="80.71" y="121.06" width="6.73" height="6.73" style="fill:#b4d334;"/><rect x="87.44" y="13.45" width="6.73" height="13.45" style="fill:#b4d334;"/><polygon points="94.16 33.63 100.89 33.63 100.89 26.9 94.16 26.9 94.16 33.63 87.44 33.63 87.44 40.35 94.16 40.35 94.16 33.63" style="fill:#b4d334;"/><rect x="87.44" y="47.08" width="6.73" height="6.73" style="fill:#b4d334;"/><rect x="94.16" width="6.73" height="6.73" style="fill:#b4d334;"/><rect x="94.16" y="40.35" width="6.73" height="6.73" style="fill:#b4d334;"/><rect x="107.61" width="6.73" height="6.73" style="fill:#b4d334;"/><rect x="107.61" y="13.45" width="6.73" height="6.73" style="fill:#b4d334;"/><rect x="107.61" y="26.9" width="6.73" height="6.73" style="fill:#b4d334;"/><rect x="107.61" y="40.35" width="6.73" height="6.73" style="fill:#b4d334;"/><polygon points="107.61 161.42 107.61 168.15 114.34 168.15 121.07 168.15 121.07 161.42 114.34 161.42 107.61 161.42" style="fill:#b4d334;"/><rect x="121.07" y="80.71" width="6.73" height="6.73" style="fill:#b4d334;"/><rect x="121.07" y="121.06" width="6.73" height="6.73" style="fill:#b4d334;"/><polygon points="141.24 13.45 134.52 13.45 134.52 33.63 141.24 33.63 147.97 33.63 154.69 33.63 154.69 13.45 147.97 13.45 141.24 13.45" style="fill:#b4d334;"/><rect x="141.24" y="161.42" width="6.73" height="6.73" style="fill:#b4d334;"/><polygon points="154.69 53.81 147.97 53.81 147.97 60.53 141.24 60.53 141.24 53.81 134.52 53.81 134.52 60.53 127.79 60.53 127.79 67.26 121.07 67.26 121.07 73.98 127.79 73.98 127.79 80.71 134.52 80.71 134.52 73.98 134.52 73.98 134.52 67.26 141.24 67.26 141.24 73.98 141.24 73.98 141.24 80.71 147.97 80.71 154.69 80.71 161.42 80.71 161.42 87.44 168.15 87.44 168.15 73.98 168.15 73.98 168.15 67.26 161.42 67.26 161.42 73.98 154.69 73.98 147.97 73.98 147.97 67.26 154.69 67.26 161.42 67.26 161.42 60.53 168.15 60.53 168.15 53.81 161.42 53.81 154.69 53.81" style="fill:#b4d334;"/><path d="M154.69,94.16h-13.45v-6.73h-6.73v13.45h-6.72v6.73h-6.73v-6.73h6.73v-6.73h-6.73v-6.73h-6.73v-6.73h-13.45v-6.73h6.73v-13.45h6.73v6.73h6.73v-13.45h-26.9v6.73h-13.45v13.45h13.45v6.72h6.73v6.73h-6.73v6.73h-6.73v6.73h13.45s6.73,0,6.73,0v-6.72h6.73v13.45h-26.9v-6.73h-6.73v6.73h-6.73v-6.73h-6.73v6.73h6.73v6.72h-13.45v-6.73h-6.73v26.9h20.18v6.73h6.73v-13.45h-6.73v-6.73h6.73v-6.72h6.73v6.72h6.73v-6.73h13.45v13.45h-6.73v13.45h-6.73v-13.45h-6.73v13.45h-6.73v6.73h-13.45v-6.73h-6.73v-6.73h-6.73v13.45h6.73v6.73h6.72v6.72h-13.45v6.73h40.35v-20.18h6.73v6.72h6.73v-13.45h13.45v6.73h-6.73v6.73h6.73v-6.72h6.73v-6.73h13.45v-6.73h-33.63s6.73,0,6.73,0v-20.18h13.45s6.72,0,6.72,0v20.18h6.73v-26.9h6.73v13.45h13.45v-13.45h6.73v-13.45h-6.73v-6.73h-6.73v6.73ZM94.16,73.98v-6.73h6.73v6.73h-6.73ZM80.71,154.69v-6.72h6.73v6.72h-6.73ZM141.24,107.61h-6.72v-6.73h6.72v6.73ZM161.42,107.61h-6.73v-6.73h6.73v6.73Z" style="fill:#b4d334;"/><polygon points="154.69 134.52 154.69 147.97 147.97 147.97 141.24 147.97 134.52 147.97 134.52 154.69 127.79 154.69 127.79 161.42 134.52 161.42 134.52 161.42 141.24 161.42 141.24 154.69 147.97 154.69 147.97 161.42 154.69 161.42 161.42 161.42 161.42 168.15 168.15 168.15 168.15 154.69 168.15 134.52 161.42 134.52 154.69 134.52" style="fill:#b4d334;"/><path d="M161.42,0h-40.35v47.08h47.08V0h-6.73ZM154.69,40.35h-26.9V6.73h33.63v33.63h-6.73Z" style="fill:#b4d334;"/><rect x="161.42" y="121.06" width="6.73" height="6.73" style="fill:#b4d334;"/></svg>