<svg width="48" height="48" viewBox="0 0 48 48" fill="none" xmlns="http://www.w3.org/2000/svg">
<g id="Icon / Spot / Large-56 / Piggybank">
<rect id="Bounding box" width="47.6509" height="47.6509" transform="matrix(-1 0 0 1 47.6509 0)" fill="white" fill-opacity="0.01"/>
<path id="Path" fill-rule="evenodd" clip-rule="evenodd" d="M6.01409 42.2922L15.5159 46.5771C17.2611 46.9418 19.1033 47.1241 20.9455 47.1241C23.1755 47.1241 25.3086 46.8506 27.3447 46.3036L36.6526 41.7452C38.7856 39.9218 40.337 37.2779 41.2096 35.4545L41.6944 27.2493C40.8218 23.6026 38.3009 20.4117 34.9074 18.0413C34.9074 18.0413 31.1367 14.5012 28.7928 13.9387C26.3688 13.2093 23.7573 13.9387 21.0425 13.9387C9.40759 13.9387 0.00273514 21.3234 0.00273514 30.4402C-0.094223 35.2722 2.23275 39.3748 6.01409 42.2922Z" fill="#95EADA"/>
<circle id="Oval" cx="1.49953" cy="1.49953" r="1.49953" transform="matrix(-1 0 0 1 35.6548 16.2508)" fill="#13126C"/>
<path id="Path 4" d="M14.6577 16.2151C14.6577 16.2151 15.4418 15.1618 16.4661 14.4465C17.4904 13.7311 19.2028 13.5002 19.2028 13.5002" stroke="#13126C" stroke-width="1.95582" stroke-linecap="round" stroke-linejoin="round"/>
<path id="Shape" fill-rule="evenodd" clip-rule="evenodd" d="M1.16682 16.1735C0.544518 16.1735 0 16.7118 0 17.327C0 21.2488 0.90012 21.5569 4.78954 21.7107V22.4797C4.78954 26.4784 6.42309 30.1696 9.45684 33.0917L8.13444 38.0902C7.97886 38.7054 8.05665 39.3206 8.3678 39.8589C8.67896 40.3972 9.14568 40.7817 9.76799 40.9355L17.7802 43.0886C18.0135 43.1655 18.1691 43.1655 18.4025 43.1655H18.4025C18.7914 43.1655 19.1804 43.0886 19.5693 42.8579C20.1138 42.5503 20.5028 42.0889 20.6584 41.4738L21.4362 38.7054C22.2919 38.7823 23.2254 38.8592 24.081 38.8592C25.2479 38.8592 26.3369 38.7823 27.5037 38.6285L28.2816 41.5507C28.5928 42.5503 29.5262 43.2424 30.5375 43.2424C30.7708 43.2424 30.9264 43.2424 31.1598 43.1655L39.172 41.0893C40.4166 40.7817 41.1167 39.5513 40.8055 38.3209L39.2498 32.7841C39.9285 32.0653 40.5467 31.1075 41.0669 30.3016C41.3814 29.8144 41.6601 29.3827 41.8946 29.093H44.1504C45.8618 29.093 47.6509 27.3243 47.6509 25.6325V20.8648C47.6509 19.0961 45.8618 17.5581 44.1504 17.5581H42.2835C41.5056 16.0201 40.261 13.6362 38.5497 12.0214L40.8833 9.79129C41.3501 9.40679 41.5834 8.7916 41.5834 8.17641C41.5834 7.56121 41.3501 7.02292 40.8833 6.56152C39.4053 5.10044 37.3828 4.25455 35.2826 4.25455C32.8711 4.25455 30.6153 5.33114 29.1373 7.09982C27.5037 6.71532 25.7146 6.48462 24.0033 6.48462C14.5909 6.48462 6.81203 12.1752 5.10069 19.7113C4.60496 19.6693 4.19801 19.6553 3.86396 19.6438C2.36338 19.5923 2.33365 19.5913 2.33365 17.327C2.33365 16.6349 1.78913 16.1735 1.16682 16.1735ZM10.3125 38.7823L12.0239 32.4765C8.99011 30.0158 7.12319 26.5553 7.20098 22.4797C7.20098 14.7897 14.7464 8.5609 24.081 8.5609C26.2591 8.5609 28.2816 8.9454 30.2263 9.56059C31.1598 7.63811 33.1045 6.33083 35.3604 6.33083C36.9161 6.33083 38.3163 6.94602 39.3276 7.94571L35.2048 12.0214C37.9274 14.0207 39.9499 16.7122 40.65 19.7882H44.1504C44.5394 19.7882 45.3173 20.3265 45.3173 20.7879V25.5556C45.3173 25.9401 44.6172 26.7091 44.1504 26.7091H40.261C39.5609 28.2471 38.3163 30.4772 36.605 32.0152L38.4719 38.7054L30.4597 40.8586L29.1373 35.8601C27.5037 36.3215 25.7924 36.5522 24.0033 36.5522C22.5253 36.5522 21.0473 36.3984 19.6471 36.0908L18.3247 40.9355L10.3125 38.7823Z" fill="#13126C"/>
</g>
</svg>
