<svg width="14" height="16" viewBox="0 0 14 16" fill="none" xmlns="http://www.w3.org/2000/svg">
<g id="noun_Shield_792760">
<g id="Group">
<g id="Shape">
<mask id="path-1-inside-1_10_20250" fill="white">
<path d="M13.2191 1.70692C9.29605 -0.528872 4.94652 -0.608722 0.426424 1.70692L0 1.94647V6.65759C0 10.6501 2.55854 14.3232 6.48165 15.8403L6.82278 16L7.16392 15.8403C11.087 14.2433 13.6456 10.6501 13.6456 6.65759V1.94647L13.2191 1.70692Z"/>
</mask>
<path d="M13.2191 1.70692L12.5755 2.8364L12.5824 2.84032L13.2191 1.70692ZM0.426424 1.70692L-0.16631 0.549909L-0.188521 0.561288L-0.21028 0.573512L0.426424 1.70692ZM0 1.94647L-0.636704 0.81306L-1.3 1.18567V1.94647H0ZM6.48165 15.8403L7.03282 14.6629L6.99228 14.644L6.95054 14.6278L6.48165 15.8403ZM6.82278 16L6.27162 17.1774L6.82278 17.4354L7.37395 17.1774L6.82278 16ZM7.16392 15.8403L6.67378 14.6362L6.64293 14.6488L6.61276 14.6629L7.16392 15.8403ZM13.6456 1.94647H14.9456V1.18568L14.2823 0.813061L13.6456 1.94647ZM13.2191 1.70692L13.8628 0.57746C9.52896 -1.89243 4.71277 -1.94964 -0.16631 0.549909L0.426424 1.70692L1.01916 2.86392C5.18026 0.732195 9.06313 0.834685 12.5755 2.83637L13.2191 1.70692ZM0.426424 1.70692L-0.21028 0.573512L-0.636704 0.81306L0 1.94647L0.636704 3.07987L1.06313 2.84032L0.426424 1.70692ZM0 1.94647H-1.3V6.65759H0H1.3V1.94647H0ZM0 6.65759H-1.3C-1.3 11.2121 1.61244 15.3511 6.01275 17.0528L6.48165 15.8403L6.95054 14.6278C3.50465 13.2952 1.3 10.0881 1.3 6.65759H0ZM6.48165 15.8403L5.93048 17.0177L6.27162 17.1774L6.82278 16L7.37395 14.8226L7.03282 14.6629L6.48165 15.8403ZM6.82278 16L7.37395 17.1774L7.71509 17.0177L7.16392 15.8403L6.61276 14.6629L6.27162 14.8226L6.82278 16ZM7.16392 15.8403L7.65407 17.0444C12.0202 15.267 14.9456 11.2274 14.9456 6.65759H13.6456H12.3456C12.3456 10.0727 10.1539 13.2196 6.67378 14.6362L7.16392 15.8403ZM13.6456 6.65759H14.9456V1.94647H13.6456H12.3456V6.65759H13.6456ZM13.6456 1.94647L14.2823 0.813061L13.8559 0.573512L13.2191 1.70692L12.5824 2.84032L13.0089 3.07987L13.6456 1.94647Z" fill="#3667E9" mask="url(#path-1-inside-1_10_20250)"/>
</g>
<path id="Vector 21" d="M3.79102 7.27264L6.06528 9.45446L10.6138 5.09082" stroke="#3667E9" stroke-width="1.3" stroke-linecap="round" stroke-linejoin="round"/>
</g>
</g>
</svg>
